<svg width="33" height="32" viewBox="0 0 33 32" fill="none" xmlns="http://www.w3.org/2000/svg">
<mask id="mask0_1_14786" style="mask-type:alpha" maskUnits="userSpaceOnUse" x="0" y="0" width="33" height="32">
<path fill-rule="evenodd" clip-rule="evenodd" d="M20.8 25.3333V20H26.1333L26.1347 25.3333H20.8ZM26.1333 17.3333H20.8C19.3293 17.3333 18.1333 18.5293 18.1333 20V25.3333C18.1333 26.804 19.3293 28 20.8 28H26.1333C27.604 28 28.8 26.804 28.8 25.3333V20C28.8 18.5293 27.604 17.3333 26.1333 17.3333ZM7.46667 25.3333V20H12.8L12.8013 25.3333H7.46667ZM12.8 17.3333H7.46667C5.996 17.3333 4.8 18.5293 4.8 20V25.3333C4.8 26.804 5.996 28 7.46667 28H12.8C14.2707 28 15.4667 26.804 15.4667 25.3333V20C15.4667 18.5293 14.2707 17.3333 12.8 17.3333ZM20.8 12V6.66667H26.1333L26.1347 12H20.8ZM26.1333 4H20.8C19.3293 4 18.1333 5.196 18.1333 6.66667V12C18.1333 13.4707 19.3293 14.6667 20.8 14.6667H26.1333C27.604 14.6667 28.8 13.4707 28.8 12V6.66667C28.8 5.196 27.604 4 26.1333 4ZM7.46667 12V6.66667H12.8L12.8013 12H7.46667ZM12.8 4H7.46667C5.996 4 4.8 5.196 4.8 6.66667V12C4.8 13.4707 5.996 14.6667 7.46667 14.6667H12.8C14.2707 14.6667 15.4667 13.4707 15.4667 12V6.66667C15.4667 5.196 14.2707 4 12.8 4Z" fill="#071435"/>
</mask>
<g mask="url(#mask0_1_14786)">
<rect width="32" height="32" transform="translate(0.799999)" fill="#075095"/>
</g>
</svg>
