<svg width="24" height="24" viewBox="0 0 24 24" fill="none" xmlns="http://www.w3.org/2000/svg">
<g clip-path="url(#clip0_1_7007)">
<path d="M12 24C18.6274 24 24 18.6274 24 12C24 5.37258 18.6274 0 12 0C5.37258 0 0 5.37258 0 12C0 18.6274 5.37258 24 12 24Z" fill="#FFCC00"/>
<path fill-rule="evenodd" clip-rule="evenodd" d="M20.7 12.1C20.725 12.325 20.725 12.55 20.725 12.775C20.725 17.375 16.825 21.075 12 21.075C7.19999 21.075 3.27499 17.375 3.27499 12.775C3.27499 12.55 3.29999 12.325 3.32499 12.1C3.67499 16.375 7.42499 19.725 12 19.725C16.575 19.725 20.325 16.375 20.7 12.1Z" fill="white"/>
<path fill-rule="evenodd" clip-rule="evenodd" d="M12 3.125C16.825 3.125 20.725 6.85 20.725 11.425C20.725 11.65 20.725 11.875 20.7 12.1C20.325 7.85 16.575 4.5 12 4.5C7.42499 4.5 3.67499 7.85 3.32499 12.1C3.29999 11.875 3.27499 11.65 3.27499 11.425C3.27499 6.85 7.19999 3.125 12 3.125Z" fill="#967900"/>
<path fill-rule="evenodd" clip-rule="evenodd" d="M8.975 9.84999L12.15 9.82499L12.35 8.29999C12.4 7.82499 12.75 7.67499 13.175 7.67499H15.975C17.7 7.67499 18.45 8.44999 18.225 10.025L18.025 11.6C17.775 13.3 16.775 14.15 15.025 14.175H12.425C11.975 14.175 11.775 14.45 11.725 14.725L11.575 15.725C11.525 16.175 11.175 16.35 10.75 16.35H8.025C6.3 16.35 5.55 15.55 5.775 13.975L6 12.425C6.225 10.7 7.225 9.84999 8.975 9.84999ZM11.85 12.6C11.875 12.3 12.1 12 12.575 12H14.725C15.325 12 15.65 11.725 15.725 11.15L15.775 10.675C15.875 10.1 15.625 9.82499 15.075 9.82499H12.95C12.475 9.82499 12.275 10.125 12.225 10.425L12.1 11.4C12.05 11.725 11.85 12 11.375 12H9.275C8.7 12 8.375 12.3 8.3 12.85L8.225 13.35C8.15 13.9 8.4 14.175 8.95 14.175H11.625L11.85 12.6Z" fill="#967900"/>
</g>
<defs>
<clipPath id="clip0_1_7007">
<rect width="24" height="24" fill="white"/>
</clipPath>
</defs>
</svg>
