<svg width="32" height="32" viewBox="0 0 32 32" fill="none" xmlns="http://www.w3.org/2000/svg">
<mask id="mask0_1_13135" style="mask-type:alpha" maskUnits="userSpaceOnUse" x="0" y="0" width="32" height="32">
<path d="M22.374 4.66667C24.238 4.66667 25.9891 5.3908 27.2998 6.7028C30.0157 9.42281 30.0154 13.8481 27.3008 16.568L16.9433 26.943C16.6928 27.1934 16.3544 27.3336 16 27.3337C15.6467 27.3337 15.306 27.1931 15.0566 26.9411L4.70018 16.568C1.98552 13.848 1.98552 9.4228 4.70018 6.7028C6.01207 5.391 7.76087 4.66677 9.62597 4.66667C11.4913 4.66667 13.2421 5.39086 14.5527 6.7028L16 8.15202L17.4463 6.70378C18.7582 5.39057 20.5075 4.66676 22.374 4.66667ZM9.62597 7.33366C8.4741 7.33373 7.39385 7.77833 6.58593 8.58756C4.90859 10.2676 4.90921 13.0026 6.58788 14.6852L16 24.113L25.4131 14.6852C27.0916 13.0025 27.0917 10.2675 25.4131 8.58756C23.7971 6.96779 20.949 6.97053 19.333 8.58756L16.9433 10.9811C16.442 11.4838 15.557 11.4838 15.0557 10.9811L12.666 8.58659C11.858 7.77869 10.7792 7.33366 9.62597 7.33366Z" fill="#01101E"/>
</mask>
<g mask="url(#mask0_1_13135)">
<rect width="32" height="32" fill="#B3B7BC"/>
</g>
</svg>
