<svg width="32" height="32" viewBox="0 0 32 32" fill="none" xmlns="http://www.w3.org/2000/svg">
<mask id="mask0_1_13131" style="mask-type:alpha" maskUnits="userSpaceOnUse" x="0" y="0" width="32" height="32">
<path fill-rule="evenodd" clip-rule="evenodd" d="M25.3333 14.6667H9.51333L14.3573 8.85333C14.8293 8.288 14.752 7.44667 14.1867 6.976C13.62 6.504 12.78 6.58133 12.3093 7.14667L5.64267 15.1467C5.59067 15.2093 5.564 15.2827 5.52533 15.352C5.49333 15.408 5.45467 15.456 5.43067 15.5173C5.37067 15.6707 5.33467 15.832 5.33467 15.9947C5.33467 15.996 5.33333 15.9987 5.33333 16C5.33333 16.0013 5.33467 16.004 5.33467 16.0053C5.33467 16.168 5.37067 16.3293 5.43067 16.4827C5.45467 16.544 5.49333 16.592 5.52533 16.648C5.564 16.7173 5.59067 16.7907 5.64267 16.8533L12.3093 24.8533C12.5733 25.1693 12.952 25.3333 13.3333 25.3333C13.6347 25.3333 13.9373 25.232 14.1867 25.024C14.752 24.5533 14.8293 23.712 14.3573 23.1467L9.51333 17.3333H25.3333C26.0693 17.3333 26.6667 16.736 26.6667 16C26.6667 15.264 26.0693 14.6667 25.3333 14.6667" fill="#071435"/>
</mask>
<g mask="url(#mask0_1_13131)">
<rect width="32" height="32" fill="#B3B7BC"/>
</g>
</svg>
