<svg width="24" height="24" viewBox="0 0 24 24" fill="none" xmlns="http://www.w3.org/2000/svg">
<mask id="mask0_1_13279" style="mask-type:alpha" maskUnits="userSpaceOnUse" x="0" y="0" width="24" height="24">
<path d="M7.49979 18C8.32779 18 8.99979 18.671 8.99979 19.5C8.99979 20.329 8.32779 21 7.49979 21C6.67188 20.9999 5.99979 20.3289 5.99979 19.5C5.99979 18.6711 6.67188 18.0001 7.49979 18ZM17.4998 18C18.3278 18 18.9998 18.671 18.9998 19.5C18.9998 20.329 18.3278 21 17.4998 21C16.6719 20.9999 15.9998 20.3289 15.9998 19.5C15.9998 18.6711 16.6719 18.0001 17.4998 18ZM4.99979 3C5.45079 3 5.84563 3.3023 5.96463 3.7373L6.58182 6H19.3816C20.0796 6 20.7158 6.35424 21.0828 6.94824C21.4496 7.54211 21.4835 8.26869 21.1707 8.89355L17.8943 15.4473C17.7242 15.786 17.3786 16 16.9998 16H7.99979C7.54879 16 7.15394 15.6977 7.03494 15.2627L4.23611 5H2.99979C2.44679 5 1.99979 4.552 1.99979 4C1.99979 3.448 2.44679 3 2.99979 3H4.99979ZM8.76346 14H16.3816L19.3816 8H7.12674L8.76346 14Z" fill="#01101E"/>
</mask>
<g mask="url(#mask0_1_13279)">
<rect width="24" height="24" fill="white"/>
</g>
</svg>
