<svg width="32" height="32" viewBox="0 0 32 32" fill="none" xmlns="http://www.w3.org/2000/svg">
<mask id="mask0_1_14794" style="mask-type:alpha" maskUnits="userSpaceOnUse" x="0" y="0" width="32" height="32">
<path fill-rule="evenodd" clip-rule="evenodd" d="M25.3333 21.8697L17.3333 23.667V10.1297L25.3333 8.33367V21.8697ZM6.66667 8.33367L14.6667 10.1297V23.667L6.66667 21.8697V8.33367ZM27.5 5.62434C27.1827 5.37234 26.7693 5.27634 26.3733 5.36567L16 7.69634L5.62667 5.36567C5.22933 5.27501 4.81733 5.37234 4.5 5.62434C4.184 5.87901 4 6.26167 4 6.66701V22.9363C4 23.5603 4.432 24.1003 5.04 24.2363L15.7067 26.6337C15.8053 26.6563 15.9027 26.667 16 26.667C16.0973 26.667 16.1947 26.6563 16.2933 26.6337L26.96 24.2363C27.568 24.1003 28 23.5603 28 22.9363V6.66701C28 6.26167 27.816 5.87901 27.5 5.62434Z" fill="#01101E"/>
</mask>
<g mask="url(#mask0_1_14794)">
<rect width="32" height="32" fill="#075095"/>
</g>
</svg>
