<svg width="33" height="32" viewBox="0 0 33 32" fill="none" xmlns="http://www.w3.org/2000/svg">
<mask id="mask0_1_14798" style="mask-type:alpha" maskUnits="userSpaceOnUse" x="0" y="0" width="33" height="32">
<path d="M10.6004 24C11.7042 24.0002 12.6004 24.8948 12.6004 26C12.6004 27.1052 11.7042 27.9998 10.6004 28C9.49637 28 8.60037 27.1053 8.60037 26C8.60037 24.8947 9.49637 24 10.6004 24ZM23.9334 24C25.0374 24 25.9334 24.8947 25.9334 26C25.9334 27.1053 25.0374 28 23.9334 28C22.8294 28 21.9334 27.1053 21.9334 26C21.9334 24.8947 22.8294 24 23.9334 24ZM7.26639 4C7.86768 4 8.39479 4.40248 8.5535 4.98242L9.37576 8H26.4422C27.3728 8 28.2214 8.47172 28.7107 9.26367C29.2 10.0556 29.2451 11.0251 28.8279 11.8584L24.4597 20.5957C24.2331 21.0477 23.7717 21.333 23.2664 21.333H11.2664C10.6651 21.333 10.1379 20.9306 9.97928 20.3506L6.24783 6.66699H4.5994C3.86221 6.66682 3.26639 6.0689 3.26639 5.33301C3.26656 4.59727 3.86232 4.00018 4.5994 4H7.26639ZM12.2849 18.667H22.4422L26.4422 10.667H10.1023L12.2849 18.667Z" fill="#050D23"/>
<mask id="mask1_1_14798" style="mask-type:luminance" maskUnits="userSpaceOnUse" x="3" y="4" width="27" height="24">
<path d="M10.6004 24C11.7042 24.0002 12.6004 24.8948 12.6004 26C12.6004 27.1052 11.7042 27.9998 10.6004 28C9.49637 28 8.60037 27.1053 8.60037 26C8.60037 24.8947 9.49637 24 10.6004 24ZM23.9334 24C25.0374 24 25.9334 24.8947 25.9334 26C25.9334 27.1053 25.0374 28 23.9334 28C22.8294 28 21.9334 27.1053 21.9334 26C21.9334 24.8947 22.8294 24 23.9334 24ZM7.26639 4C7.86768 4 8.39479 4.40248 8.5535 4.98242L9.37576 8H26.4422C27.3728 8 28.2214 8.47172 28.7107 9.26367C29.2 10.0556 29.2451 11.0251 28.8279 11.8584L24.4597 20.5957C24.2331 21.0477 23.7717 21.333 23.2664 21.333H11.2664C10.6651 21.333 10.1379 20.9306 9.97928 20.3506L6.24783 6.66699H4.5994C3.86221 6.66682 3.26639 6.0689 3.26639 5.33301C3.26656 4.59727 3.86232 4.00018 4.5994 4H7.26639ZM12.2849 18.667H22.4422L26.4422 10.667H10.1023L12.2849 18.667Z" fill="white"/>
</mask>
<g mask="url(#mask1_1_14798)">
<rect x="0.599991" width="32" height="32" fill="#050D23"/>
</g>
</mask>
<g mask="url(#mask0_1_14798)">
<rect width="32" height="32" transform="translate(0.599991)" fill="#075095"/>
</g>
</svg>
