<svg width="67" height="32" viewBox="0 0 67 32" fill="none" xmlns="http://www.w3.org/2000/svg">
<mask id="mask0_1_14717" style="mask-type:alpha" maskUnits="userSpaceOnUse" x="17" y="0" width="33" height="32">
<path fill-rule="evenodd" clip-rule="evenodd" d="M42.7333 24C42.7333 24.736 42.136 25.3333 41.4 25.3333C40.664 25.3333 40.0667 24.736 40.0667 24C40.0667 23.264 40.664 22.6667 41.4 22.6667C42.136 22.6667 42.7333 23.264 42.7333 24ZM33.4 20H22.7333L22.7547 6.66667H37.4L37.3787 20H33.4ZM26.7333 24C26.7333 24.736 26.136 25.3333 25.4 25.3333C24.664 25.3333 24.0667 24.736 24.0667 24C24.0667 23.264 24.664 22.6667 25.4 22.6667C26.136 22.6667 26.7333 23.264 26.7333 24ZM44.0667 16.64V20H40.0667V13.4413L44.0667 16.64ZM46.2333 14.9587L40.0667 10.0253V6.66667C40.0667 5.196 38.9827 4 37.6493 4H22.4827C21.1507 4 20.0667 5.196 20.0667 6.66667V20C20.0667 21.164 20.7507 22.1453 21.6947 22.5093C21.508 22.9707 21.4 23.472 21.4 24C21.4 26.2053 23.1947 28 25.4 28C27.6053 28 29.4 26.2053 29.4 24C29.4 23.5293 29.304 23.0853 29.1533 22.6667H33.4H37.6467C37.496 23.0853 37.4 23.5293 37.4 24C37.4 26.2053 39.1947 28 41.4 28C43.6053 28 45.4 26.2053 45.4 24C45.4 23.5293 45.304 23.0853 45.1533 22.6667H45.4C46.1373 22.6667 46.7333 22.0707 46.7333 21.3333V16C46.7333 15.5947 46.5493 15.212 46.2333 14.9587Z" fill="#071435"/>
</mask>
<g mask="url(#mask0_1_14717)">
<rect width="32" height="32" transform="translate(17.4)" fill="#075095"/>
</g>
</svg>
